<?xml version="1.0" encoding="UTF-8"?>
<svg width="512" height="512" viewBox="0 0 100 100" xmlns="http://www.w3.org/2000/svg">
  <!-- 樱花底色圆形 -->
  <circle cx="50" cy="50" r="35" fill="rgba(236, 72, 153, 0.2)"/>
  
  <!-- 花瓣 -->
  <path d="M60.87 25.51c5.54 2.77 4.85 9.65 2.77 12.43-3.47 4.16-9 3.47-10.39-0.69-1.39-4.16 2.08-7.63 7.62-11.74z" fill="rgba(236, 72, 153, 0.8)"/>
  <path d="M39.13 25.51c-5.54 2.77-4.85 9.65-2.77 12.43 3.47 4.16 9 3.47 10.39-0.69 1.39-4.16-2.08-7.63-7.62-11.74z" fill="rgba(236, 72, 153, 0.8)"/>
  <path d="M77.51 39.13c2.77 5.54-2.08 10.39-5.54 10.39-5.54 0-8.32-5.54-5.54-9.7 2.77-4.16 8.31-4.85 11.08-0.69z" fill="rgba(236, 72, 153, 0.9)"/>
  <path d="M22.49 39.13c-2.77 5.54 2.08 10.39 5.54 10.39 5.54 0 8.32-5.54 5.54-9.7-2.77-4.16-8.31-4.85-11.08-0.69z" fill="rgba(236, 72, 153, 0.9)"/>
  <path d="M28.03 62.79c-2.77 4.85 2.08 9.7 5.54 11.08 5.54 1.39 9.7-2.08 9-6.24-0.69-4.16-9-9-14.54-4.84z" fill="rgba(236, 72, 153, 0.7)"/>
  <path d="M71.97 62.79c2.77 4.85-2.08 9.7-5.54 11.08-5.54 1.39-9.7-2.08-9-6.24 0.69-4.16 9-9 14.54-4.84z" fill="rgba(236, 72, 153, 0.7)"/>
  
  <!-- 花心 -->
  <path d="M50 50c-7.5 0-15.68 4.87-15.68 13.9 0 9.03 7.03 18.06 15.68 18.06 8.65 0 15.68-9.03 15.68-18.06C65.68 54.87 57.5 50 50 50z" fill="rgba(236, 72, 153, 0.6)"/>
  
  <!-- 花蕊 -->
  <circle cx="50" cy="58" r="3" fill="rgba(236, 72, 153, 0.9)"/>
  <circle cx="45" cy="62" r="2" fill="rgba(236, 72, 153, 0.8)"/>
  <circle cx="55" cy="62" r="2" fill="rgba(236, 72, 153, 0.8)"/>
  <circle cx="48" cy="66" r="1.5" fill="rgba(236, 72, 153, 0.7)"/>
  <circle cx="52" cy="66" r="1.5" fill="rgba(236, 72, 153, 0.7)"/>
</svg> 